<?xml version="1.0" encoding="utf-8"?>
<!-- Generator: Adobe Illustrator 24.2.1, SVG Export Plug-In . SVG Version: 6.00 Build 0)  -->
<svg version="1.1" id="Layer_1" xmlns="http://www.w3.org/2000/svg" xmlns:xlink="http://www.w3.org/1999/xlink" x="0px" y="0px"
	 viewBox="0 0 48 64" style="enable-background:new 0 0 48 64;" xml:space="preserve">
<style type="text/css">
	.st0{fill:#2B60AD;}
	.st1{fill:#68696C;}
</style>
<g>
	<g>
		<path class="st0" d="M0.66,26.39c-0.07,0-0.13-0.01-0.2-0.03c-0.28-0.08-0.48-0.33-0.48-0.61V7.25C-0.02,1.91,3.28,0,6.36,0
			c1.7,0,3.51,0.85,4.73,2.22c1.27,1.42,1.76,3.25,1.4,5.15c-0.01,0.07-0.03,0.14-0.04,0.21c1.12,0.18,2.17,0.54,3.07,1.05
			c1.96,1.12,3.11,2.9,3.32,5.16c0.22,2.45-0.44,4.39-1.97,5.77c-2.98,2.69-8.39,2.49-11.35,2.14c-0.62-0.08-1.22,0.18-1.57,0.66
			l-2.72,3.74C1.09,26.29,0.88,26.39,0.66,26.39z M6.36,1.27c-1.18,0-5.03,0.43-5.03,5.98V23.7l1.49-2.05
			c0.64-0.88,1.74-1.34,2.86-1.21c2.19,0.26,7.57,0.62,10.24-1.79c1.22-1.1,1.75-2.7,1.56-4.75c-0.31-3.43-3.11-4.74-5.46-5.08
			c-0.89,1.87-2.61,2.79-4.08,2.7c-1.08-0.06-1.85-0.71-1.91-1.61c-0.08-1.3,1.52-2.28,3.98-2.45c0.36-0.02,0.72-0.03,1.08-0.02
			c0.02-0.1,0.05-0.2,0.07-0.3c0.37-1.96-0.39-3.32-1.1-4.11C9.1,1.96,7.65,1.27,6.36,1.27z M10.57,8.72
			c-0.16,0-0.31,0.01-0.45,0.02C8.33,8.86,7.37,9.47,7.39,9.85c0.02,0.33,0.41,0.4,0.64,0.41C8.74,10.3,9.85,9.88,10.57,8.72z"/>
	</g>
	<g>
		<path class="st0" d="M11.83,18.87c-0.73,0-1.71-0.14-3.04-0.5c-0.36-0.1-0.57-0.45-0.46-0.79c0.1-0.34,0.48-0.53,0.84-0.43
			c1.44,0.39,3.03,0.55,3.41,0.36c0.1-0.61-0.84-3.09-1.81-5.1c-0.15-0.32,0-0.7,0.34-0.84c0.34-0.14,0.74,0,0.9,0.32
			c0.7,1.45,2.27,4.93,1.84,6.09C13.69,18.37,13.23,18.87,11.83,18.87z"/>
	</g>
	<g>
		<g>
			<path class="st0" d="M7.48,14.17c1.01,0,1.01-1.48,0-1.48C6.47,12.69,6.47,14.17,7.48,14.17L7.48,14.17z"/>
		</g>
	</g>
	<g>
		<g>
			<path class="st0" d="M14.89,13.8c1.01,0,1.01-1.48,0-1.48C13.88,12.33,13.88,13.8,14.89,13.8L14.89,13.8z"/>
		</g>
	</g>
</g>
<path class="st0" d="M6.86,37.77c0-0.88-0.47-1.59-1.23-1.9c0.52-0.34,0.85-0.98,0.85-1.67c0-1.43-0.93-2.22-2.63-2.22H0.1v8.21
	h3.72C5.76,40.19,6.86,39.31,6.86,37.77z M5.56,37.77c0,0.86-0.55,1.24-1.77,1.24H1.41v-2.49h2.4C5.04,36.53,5.56,36.9,5.56,37.77z
	 M3.75,35.35H1.41v-2.19h2.34c1.01,0,1.43,0.33,1.43,1.09C5.18,35.01,4.74,35.35,3.75,35.35z"/>
<rect x="7.99" y="31.5" class="st0" width="1.33" height="8.7"/>
<path class="st0" d="M14.98,38.11c-0.14,0.65-0.74,1.06-1.5,1.06c-1.02,0-1.5-0.45-1.5-1.43v-3.51h-1.31v3.72
	c0,1.53,0.92,2.41,2.53,2.41c0.78,0,1.4-0.21,1.79-0.61v0.44h1.31v-5.96h-1.31L14.98,38.11z"/>
<path class="st0" d="M20.48,40.36c1.07,0,2.01-0.35,2.62-0.98l0.08-0.09l-0.81-0.9l-0.1,0.1c-0.42,0.43-1.04,0.67-1.75,0.67
	c-1.05,0-1.76-0.52-1.89-1.37h4.59l0.03-0.08c0.07-0.17,0.1-0.42,0.1-0.58c0-1.84-1.22-3.07-3.03-3.07s-3.03,1.24-3.03,3.08
	C17.31,39.07,18.58,40.36,20.48,40.36z M20.34,35.26c0.94,0,1.6,0.55,1.7,1.41h-3.4C18.77,35.82,19.44,35.26,20.34,35.26z"/>
<path class="st0" d="M27.1,39.17c-0.76,0-1.5-0.28-2.14-0.8l-0.1-0.08l-0.75,0.95l0.09,0.08c0.72,0.67,1.76,1.05,2.95,1.05
	c1.54,0,2.43-0.66,2.43-1.82c0-1.2-0.84-1.53-1.95-1.85l-0.98-0.29c-0.67-0.2-0.91-0.32-0.91-0.62c0-0.39,0.64-0.53,1.18-0.53
	c0.66,0,1.22,0.16,1.65,0.49l0.12,0.09l0.59-0.99l-0.09-0.07c-0.56-0.44-1.39-0.71-2.22-0.71c-1.59,0-2.54,0.64-2.54,1.71
	c0,1.11,0.87,1.51,1.81,1.78l1.16,0.33c0.6,0.17,0.91,0.27,0.91,0.63C28.31,39.11,27.47,39.17,27.1,39.17z"/>
<polygon class="st0" points="31.85,37.93 34.42,40.19 36.32,40.19 32.51,36.94 35.89,34.37 38.34,39.64 36.72,43.3 38.07,43.3 
	42.12,34.23 40.74,34.23 39.01,38.13 37.2,34.23 36.07,34.23 35.82,34.23 34.15,34.23 31.85,35.97 31.85,31.5 30.53,31.5 
	30.53,40.19 31.85,40.19 "/>
<polygon class="st0" points="7.49,49.35 5.9,43.11 4.59,43.11 3,49.35 1.3,43.11 -0.03,43.11 2.31,51.33 3.75,51.33 5.25,45.47 
	6.74,51.33 8.19,51.33 10.52,43.11 9.2,43.11 "/>
<path class="st0" d="M13.64,45.2c-1.81,0-3.03,1.24-3.03,3.08c0,1.92,1.27,3.21,3.17,3.21c1.07,0,2.01-0.35,2.62-0.98l0.08-0.09
	l-0.81-0.9l-0.1,0.1c-0.42,0.43-1.04,0.67-1.75,0.67c-1.05,0-1.76-0.52-1.89-1.37h4.59l0.03-0.08c0.07-0.17,0.1-0.42,0.1-0.58
	C16.66,46.43,15.45,45.2,13.64,45.2z M13.64,46.39c0.94,0,1.6,0.55,1.7,1.41h-3.4C12.07,46.95,12.74,46.39,13.64,46.39z"/>
<rect x="17.84" y="42.63" class="st0" width="1.32" height="8.7"/>
<rect x="20.52" y="42.63" class="st0" width="1.32" height="8.7"/>
<path class="st0" d="M26.26,45.2c-0.78,0-1.43,0.25-1.84,0.7v-0.53h-1.26v5.96h1.31l0-3.88c0.14-0.65,0.74-1.06,1.5-1.06
	c1,0,1.5,0.48,1.5,1.43v3.51h1.31v-3.72C28.78,46.1,27.84,45.2,26.26,45.2z"/>
<path class="st0" d="M32.83,45.2c-1.81,0-3.03,1.24-3.03,3.08c0,1.92,1.27,3.21,3.17,3.21c1.07,0,2.01-0.35,2.62-0.98l0.08-0.09
	l-0.81-0.9l-0.1,0.1c-0.42,0.43-1.04,0.67-1.75,0.67c-1.05,0-1.76-0.52-1.89-1.37h4.59l0.03-0.08c0.07-0.17,0.1-0.42,0.1-0.58
	C35.85,46.43,34.64,45.2,32.83,45.2z M32.83,46.39c0.94,0,1.6,0.55,1.7,1.41h-3.4C31.26,46.95,31.93,46.39,32.83,46.39z"/>
<path class="st0" d="M40.12,47.82l-0.98-0.29c-0.67-0.2-0.91-0.32-0.91-0.62c0-0.39,0.64-0.53,1.18-0.53c0.66,0,1.22,0.16,1.65,0.49
	l0.12,0.09l0.59-0.99l-0.09-0.07c-0.56-0.44-1.39-0.71-2.22-0.71c-1.59,0-2.54,0.64-2.54,1.71c0,1.11,0.87,1.51,1.81,1.78l1.16,0.33
	c0.6,0.17,0.91,0.27,0.91,0.63c0,0.59-0.85,0.65-1.21,0.65c-0.76,0-1.5-0.28-2.14-0.8l-0.1-0.08l-0.75,0.95l0.09,0.08
	c0.72,0.67,1.76,1.05,2.95,1.05c1.54,0,2.43-0.66,2.43-1.82C42.06,48.47,41.22,48.14,40.12,47.82z"/>
<path class="st0" d="M46.05,47.82l-0.98-0.29c-0.67-0.2-0.91-0.32-0.91-0.62c0-0.39,0.64-0.53,1.18-0.53c0.66,0,1.22,0.16,1.65,0.49
	l0.12,0.09l0.59-0.99l-0.09-0.07c-0.56-0.44-1.39-0.71-2.22-0.71c-1.59,0-2.54,0.64-2.54,1.71c0,1.11,0.87,1.51,1.81,1.78l1.16,0.33
	c0.6,0.17,0.91,0.27,0.91,0.63c0,0.59-0.85,0.65-1.21,0.65c-0.76,0-1.5-0.28-2.14-0.8l-0.1-0.08l-0.75,0.95l0.09,0.08
	c0.72,0.67,1.76,1.05,2.95,1.05c1.54,0,2.43-0.66,2.43-1.82C48,48.47,47.16,48.14,46.05,47.82z"/>
<path class="st1" d="M0.51,55.89h1.75v2.33H0.51V55.89z M0.85,57.93h1.07v-1.74H0.85V57.93z M3.29,55.72v3.36H2.95v-3.36H3.29z"/>
<path class="st1" d="M4.82,55.85v0.83c0,0.62,0.33,1.06,0.74,1.47l-0.23,0.21c-0.3-0.29-0.55-0.64-0.67-0.97
	c-0.13,0.37-0.39,0.72-0.69,1.02l-0.24-0.2c0.39-0.37,0.76-0.9,0.76-1.52v-0.83H4.82z M5.21,56.77h0.61v-1.02h0.33v3.26H5.81v-1.94
	H5.21V56.77z M6.86,55.72v3.36H6.53v-3.36H6.86z"/>
<path class="st1" d="M7.46,55.86h1.66v0.66h0.68v-0.8h0.34v2.38H9.81v-1.28H9.12v0.75H7.46V55.86z M8.79,56.16H7.8v1.12h0.99V56.16z
	 M7.81,57.89h0.34v0.88h2.1v0.3H7.81V57.89z"/>
<path class="st1" d="M12.74,56.19h-0.77v0.53c0,0.58,0.48,1.04,0.92,1.39l-0.2,0.23c-0.34-0.25-0.74-0.71-0.88-1
	c-0.14,0.35-0.59,0.8-0.93,1.05l-0.22-0.23c0.49-0.38,0.96-0.86,0.96-1.45v-0.53h-0.83v-0.3h1.93V56.19z M13.64,55.72v3.36H13.3
	v-3.36H13.64z"/>
<path class="st1" d="M17.38,55.74v3.26h-0.33v-1.2h-0.54c-0.13,0.32-0.37,0.49-0.7,0.49c-0.53,0-0.82-0.44-0.82-1.23
	c0-0.79,0.28-1.23,0.82-1.23c0.32,0,0.55,0.16,0.68,0.45h0.56v-0.54H17.38z M15.81,56.13c-0.34,0-0.48,0.34-0.48,0.94
	S15.47,58,15.81,58c0.34,0,0.48-0.34,0.48-0.94S16.16,56.13,15.81,56.13z M16.59,57.51h0.46v-0.93h-0.47
	c0.03,0.14,0.04,0.31,0.04,0.48C16.63,57.23,16.62,57.38,16.59,57.51z M18.07,55.72v3.36h-0.33v-3.36H18.07z"/>
<path class="st1" d="M21.26,55.87v1.74h-1.03v0.74h1.47v0.3h-3.28v-0.3h1.47v-0.74h-1.03v-1.74h0.34v0.55h1.72v-0.55H21.26z
	 M20.93,57.31v-0.6h-1.72v0.6H20.93z"/>
<path class="st1" d="M24.6,56.62c0,0.64-0.62,1.21-1.49,1.78l-0.2-0.27c0.85-0.53,1.35-1.03,1.35-1.53v-0.41h-1.29v-0.3h1.64V56.62z
	 M25.64,55.72v3.36H25.3v-3.36H25.64z"/>
<path class="st1" d="M28.08,55.82v1.77h-1.68v-1.77h0.34v0.59h1.01v-0.59H28.08z M26.7,57.91h0.34v0.85h2.06v0.3H26.7V57.91z
	 M27.74,57.3v-0.59h-1.01v0.59H27.74z M28.99,55.72v0.93h0.53v0.3h-0.53v1.15h-0.34v-2.38H28.99z"/>
<path class="st1" d="M0.46,63.22v-1.39h1.32v-0.75H0.46v-0.3h1.66v1.34H0.79v0.8h0.57c0.36,0,0.67,0,1-0.04l0.03,0.28
	c-0.38,0.05-0.71,0.06-1.08,0.06H0.46z M3.05,60.63v1.13h0.57v0.3H3.05v1.93H2.71v-3.36H3.05z"/>
<path class="st1" d="M4.85,63.18c-0.59,0-0.97-0.43-0.97-1.22c0-0.79,0.38-1.22,0.97-1.22c0.59,0,0.97,0.43,0.97,1.22
	C5.82,62.75,5.45,63.18,4.85,63.18z M4.85,61.03c-0.4,0-0.64,0.33-0.64,0.92c0,0.59,0.23,0.92,0.64,0.92c0.4,0,0.64-0.33,0.64-0.92
	C5.49,61.37,5.26,61.03,4.85,61.03z M6.73,60.63v3.36H6.39v-3.36H6.73z"/>
<path class="st1" d="M10.47,63.25v0.3H7.2v-0.3H10.47z M10.18,61.1H7.49v-0.3h2.69V61.1z M10.16,62.57H7.51v-0.3h0.5v-1.01h0.34
	v1.01h0.99v-1.01h0.34v1.01h0.5V62.57z"/>
<path class="st1" d="M13.93,63.25v0.3h-3.28v-0.3H13.93z M12.46,60.77v0.52c0,0.48,0.75,0.84,1.25,1.03l-0.15,0.28
	c-0.51-0.17-1.07-0.53-1.27-0.83c-0.2,0.3-0.76,0.65-1.27,0.83l-0.15-0.28c0.5-0.19,1.25-0.55,1.25-1.03v-0.52H12.46z"/>
<path class="st1" d="M15.94,62.12h-1.32v0.8h0.57c0.36,0,0.67,0,1-0.04l0.03,0.28c-0.38,0.05-0.71,0.06-1.08,0.06h-0.86v-2.44h1.72
	v0.3h-1.38v0.75h1.32V62.12z M16.88,60.63v1.13h0.57v0.3h-0.57v1.93h-0.34v-3.36H16.88z"/>
<path class="st1" d="M18.66,60.67c0.54,0,0.89,0.31,0.89,0.77c0,0.46-0.36,0.77-0.89,0.77c-0.54,0-0.89-0.31-0.89-0.77
	C17.76,60.98,18.12,60.67,18.66,60.67z M18.66,61.92c0.33,0,0.56-0.19,0.56-0.48c0-0.29-0.24-0.48-0.56-0.48
	c-0.33,0-0.56,0.19-0.56,0.48C18.09,61.73,18.33,61.92,18.66,61.92z M18.16,63.09h2v-0.28h-2v-0.3h2.34v0.87h-2v0.32h2.06V64h-2.39
	V63.09z M20.16,60.63h0.34v1.72h-0.34V60.63z"/>
<path class="st1" d="M25.14,62.64v0.3h-1.47v1.04h-0.34v-1.04h-1.47v-0.3H25.14z M23.67,60.47v0.46h1.07v0.3h-1.07v0.04
	c0,0.41,0.7,0.67,1.26,0.87l-0.13,0.28c-0.51-0.16-1.08-0.43-1.29-0.7c-0.21,0.26-0.78,0.53-1.29,0.7l-0.13-0.28
	c0.56-0.19,1.26-0.46,1.26-0.87v-0.04h-1.07v-0.3h1.07v-0.46H23.67z"/>
<path class="st1" d="M26.26,61.03v-0.47h0.34v0.47h0.76v0.3H26.6v0.27c0,0.38,0.5,0.63,0.87,0.78l-0.16,0.27
	c-0.36-0.14-0.71-0.38-0.87-0.6c-0.16,0.24-0.52,0.51-0.88,0.67l-0.18-0.27c0.37-0.16,0.88-0.47,0.88-0.84v-0.27h-0.79v-0.3H26.26z
	 M25.91,62.86h0.34v0.8h2.1v0.3h-2.44V62.86z M27.18,61.61h0.74v-0.99h0.34v2.45h-0.34v-1.17h-0.74V61.61z"/>
<path class="st1" d="M30.87,60.76v0.81c0,0.69,0.45,1.09,0.87,1.43l-0.22,0.23c-0.34-0.26-0.69-0.64-0.82-0.97
	c-0.13,0.38-0.49,0.77-0.82,1.03l-0.22-0.23c0.46-0.37,0.87-0.79,0.87-1.48v-0.81H30.87z M31.44,61.62h0.8v-1h0.34v3.36h-0.34v-2.06
	h-0.8V61.62z"/>
<path class="st1" d="M35.03,60.76v2.39h-1.75v-2.39h0.34v0.84h1.07v-0.84H35.03z M34.7,62.85v-0.96h-1.07v0.96H34.7z M36.06,60.63
	v3.36h-0.34v-3.36H36.06z"/>
<path class="st1" d="M39.81,63.25v0.3h-3.28v-0.3H39.81z M38.34,60.77v0.52c0,0.48,0.75,0.84,1.25,1.03l-0.15,0.28
	c-0.51-0.17-1.07-0.53-1.27-0.83c-0.2,0.3-0.76,0.65-1.27,0.83l-0.15-0.28c0.5-0.19,1.25-0.55,1.25-1.03v-0.52H38.34z"/>
</svg>
