<?xml version="1.0" encoding="utf-8"?>
<!-- Generator: Adobe Illustrator 24.2.1, SVG Export Plug-In . SVG Version: 6.00 Build 0)  -->
<svg version="1.1" id="_레이어_1" xmlns="http://www.w3.org/2000/svg" xmlns:xlink="http://www.w3.org/1999/xlink" x="0px"
	 y="0px" viewBox="0 0 272 112" style="enable-background:new 0 0 272 112;" xml:space="preserve">
<style type="text/css">
	.st0{fill:#FFFFFF;}
</style>
<g>
	<path class="st0" d="M4.4,111c-0.3,0-0.6,0-0.8-0.1c-1.2-0.3-2-1.4-2-2.5V31.7c0-22.2,13.9-30.1,27-30.1s14.8,3.5,20,9.2
		c5.4,5.9,7.5,13.5,5.9,21.4c0,0.3-0.1,0.6-0.2,0.9c4.7,0.8,9.2,2.2,13,4.4c8.3,4.6,13.2,12,14,21.4c0.9,10.2-1.9,18.2-8.3,23.9
		c-12.6,11.1-35.5,10.3-48,8.9c-2.6-0.3-5.2,0.7-6.7,2.7L6.8,109.9C6.3,110.6,5.4,111,4.4,111z M28.6,6.9c-5,0-21.3,1.8-21.3,24.8
		v68.2l6.3-8.5c2.7-3.6,7.3-5.6,12.1-5C35,87.5,57.7,89,69,79c5.2-4.6,7.4-11.2,6.6-19.7c-1.3-14.2-13.2-19.6-23.1-21.1
		c-3.8,7.7-11,11.6-17.2,11.2c-4.6-0.3-7.8-2.9-8.1-6.7c-0.3-5.4,6.4-9.5,16.8-10.2c1.5-0.1,3-0.1,4.5,0c0.1-0.4,0.2-0.8,0.3-1.3
		c1.6-8.1-1.7-13.8-4.7-17.1c-4-4.4-10.2-7.3-15.6-7.3L28.6,6.9z M46.3,37.8c-0.7,0-1.3,0-1.9,0c-7.6,0.5-11.6,3-11.5,4.6
		c0,1.4,1.7,1.7,2.7,1.7c3,0.2,7.7-1.6,10.7-6.4V37.8z"/>
	<path class="st0" d="M51.7,79.8c-3.1,0-7.2-0.6-12.8-2.1c-1.5-0.4-2.4-1.9-2-3.3s2-2.2,3.5-1.8c6.1,1.6,12.8,2.3,14.4,1.5
		c0.4-2.5-3.5-12.8-7.6-21.1c-0.7-1.3,0-2.9,1.4-3.5s3.1,0,3.8,1.3c2.9,6,9.6,20.5,7.8,25.2c-0.6,1.6-2.6,3.7-8.5,3.7L51.7,79.8z"/>
	<path class="st0" d="M33.3,60.3c4.3,0,4.3-6.1,0-6.1S29,60.3,33.3,60.3L33.3,60.3z"/>
	<path class="st0" d="M64.6,58.8c4.3,0,4.3-6.1,0-6.1S60.3,58.8,64.6,58.8L64.6,58.8z"/>
</g>
<g>
	<path class="st0" d="M129.87,41.02c0-3.01-1.62-5.44-4.28-6.48c1.85-1.16,3.01-3.35,3.01-5.67c0-4.86-3.24-7.63-9.14-7.63H106.4
		v28.1h12.95c6.71,0,10.64-3.01,10.64-8.33H129.87z M125.25,41.02c0,2.89-1.85,4.28-6.13,4.28h-8.33v-8.56h8.33
		C123.4,36.75,125.25,38.02,125.25,41.02z M119,32.81h-8.21V25.3H119c3.47,0,4.97,1.16,4.97,3.7S122.47,32.81,119,32.81z"/>
	<rect x="133.8" y="19.63" class="st0" width="4.63" height="29.72"/>
	<path class="st0" d="M158.21,42.18c-0.46,2.2-2.54,3.58-5.2,3.58c-2.66,0-5.2-1.5-5.2-4.86V28.88h-4.63V41.6
		c0,5.2,3.24,8.21,8.79,8.21s4.86-0.69,6.24-2.08v1.5h4.63V29h-4.63v13.3V42.18z"/>
	<path class="st0" d="M177.4,49.93c3.7,0,7.05-1.16,9.14-3.35l0.35-0.35l-2.78-3.12l-0.35,0.35c-1.5,1.5-3.58,2.31-6.13,2.31
		c-3.7,0-6.13-1.73-6.59-4.63h16.07v-0.23c0.35-0.58,0.46-1.5,0.46-1.97c0-6.24-4.28-10.52-10.52-10.52
		c-6.24,0-10.52,4.28-10.52,10.52s4.39,10.99,11.1,10.99L177.4,49.93z M176.82,32.47c3.24,0,5.55,1.85,5.9,4.86h-11.91
		c0.46-2.89,2.78-4.86,5.9-4.86H176.82z"/>
	<path class="st0" d="M200.53,45.88c-2.66,0-5.2-0.93-7.4-2.78l-0.35-0.35L190.12,46l0.35,0.23c2.54,2.31,6.13,3.58,10.29,3.58
		c4.16,0,8.44-2.31,8.44-6.24s-2.89-5.2-6.82-6.36l-3.35-0.93c-2.31-0.69-3.12-1.04-3.12-2.08c0-1.04,2.2-1.85,4.16-1.85
		c1.97,0,4.28,0.58,5.78,1.73l0.46,0.35l2.08-3.35l-0.35-0.23c-1.97-1.5-4.86-2.43-7.75-2.43c-5.55,0-8.9,2.2-8.9,5.9
		c0,3.7,3.01,5.2,6.36,6.13l4.05,1.16c2.08,0.58,3.12,0.93,3.12,2.2c0,1.97-3.01,2.2-4.28,2.2L200.53,45.88z"/>
	<polygon class="st0" points="217.07,41.6 226.09,49.35 232.68,49.35 219.38,38.25 231.18,29.46 239.74,47.5 234.07,59.99 
		238.81,59.99 252.92,29 248.06,29 242.05,42.3 235.8,29 231.76,29 230.95,29 225.05,29 217.07,34.89 217.07,19.63 212.44,19.63 
		212.44,49.35 217.07,49.35 	"/>
	<polygon class="st0" points="130.45,84.85 124.9,63.46 120.27,63.46 114.72,84.85 108.83,63.46 104.2,63.46 112.3,91.68 
		117.38,91.68 122.59,71.55 127.79,91.68 132.88,91.68 140.97,63.46 136.35,63.46 	"/>
	<path class="st0" d="M151.85,70.63c-6.36,0-10.52,4.28-10.52,10.52c0,6.24,4.39,10.99,11.1,10.99c6.71,0,7.05-1.16,9.14-3.35
		l0.35-0.35l-2.78-3.12l-0.35,0.35c-1.5,1.5-3.58,2.31-6.13,2.31c-3.7,0-6.13-1.73-6.59-4.63h16.07v-0.23
		c0.35-0.58,0.46-1.5,0.46-1.97c0-6.24-4.28-10.52-10.52-10.52L151.85,70.63z M151.85,74.68c3.24,0,5.55,1.85,5.9,4.86h-11.91
		c0.46-2.89,2.78-4.86,5.9-4.86H151.85z"/>
	<rect x="166.53" y="61.84" class="st0" width="4.63" height="29.72"/>
	<rect x="175.9" y="61.84" class="st0" width="4.63" height="29.72"/>
	<path class="st0" d="M195.91,70.63c-2.78,0-4.97,0.81-6.48,2.43v-1.85h-4.39v20.47h4.63v-13.3c0.46-2.2,2.54-3.58,5.2-3.58
		s5.2,1.62,5.2,4.86v12.03h4.63V78.96c0-5.2-3.35-8.21-8.79-8.21L195.91,70.63z"/>
	<path class="st0" d="M218.8,70.63c-6.36,0-10.52,4.28-10.52,10.52c0,6.24,4.39,10.99,11.1,10.99c6.71,0,7.05-1.16,9.14-3.35
		l0.35-0.35l-2.78-3.12l-0.35,0.35c-1.5,1.5-3.58,2.31-6.13,2.31c-3.7,0-6.13-1.73-6.59-4.63h16.07v-0.23
		c0.35-0.58,0.46-1.5,0.46-1.97c0-6.24-4.28-10.52-10.52-10.52L218.8,70.63z M218.8,74.68c3.24,0,5.55,1.85,5.9,4.86h-11.91
		c0.46-2.89,2.78-4.86,5.9-4.86H218.8z"/>
	<path class="st0" d="M244.25,79.65l-3.35-0.93c-2.31-0.69-3.12-1.16-3.12-2.08c0-0.93,2.2-1.85,4.16-1.85s4.28,0.58,5.78,1.73
		l0.46,0.35l2.08-3.35l-0.35-0.23c-1.97-1.5-4.86-2.43-7.75-2.43c-5.55,0-8.9,2.2-8.9,5.9s3.01,5.2,6.36,6.13l4.05,1.16
		c2.08,0.58,3.12,0.93,3.12,2.2c0,1.97-3.01,2.2-4.28,2.2c-2.66,0-5.2-0.93-7.4-2.78l-0.35-0.35l-2.66,3.24l0.35,0.23
		c2.54,2.31,6.13,3.58,10.29,3.58c4.16,0,8.44-2.31,8.44-6.24c0-3.93-2.89-5.2-6.82-6.36L244.25,79.65z"/>
	<path class="st0" d="M265.06,79.65l-3.35-0.93c-2.31-0.69-3.12-1.16-3.12-2.08c0-0.93,2.2-1.85,4.16-1.85s4.28,0.58,5.78,1.73
		l0.46,0.35l2.08-3.35l-0.35-0.23c-1.97-1.5-4.86-2.43-7.75-2.43c-5.55,0-8.9,2.2-8.9,5.9s3.01,5.2,6.36,6.13l4.05,1.16
		c2.08,0.58,3.12,0.93,3.12,2.2c0,1.97-3.01,2.2-4.28,2.2c-2.66,0-5.2-0.93-7.4-2.78l-0.35-0.35l-2.66,3.24l0.35,0.23
		c2.54,2.31,6.13,3.58,10.29,3.58s8.44-2.31,8.44-6.24c0-3.93-2.89-5.2-6.82-6.36L265.06,79.65z"/>
</g>
</svg>
