<?xml version="1.0" encoding="utf-8"?>
<!-- Generator: Adobe Illustrator 24.2.1, SVG Export Plug-In . SVG Version: 6.00 Build 0)  -->
<svg version="1.1" id="Layer_1" xmlns="http://www.w3.org/2000/svg" xmlns:xlink="http://www.w3.org/1999/xlink" x="0px" y="0px"
	 viewBox="0 0 48 64" style="enable-background:new 0 0 48 64;" xml:space="preserve">
<style type="text/css">
	.st0{fill:#2B60AD;}
	.st1{fill:#68696C;}
</style>
<g>
	<g>
		<path class="st0" d="M0.6,23c-0.1,0-0.1,0-0.2,0C0.2,22.9,0,22.7,0,22.5V6.3C0,1.7,2.9,0,5.5,0C7,0,8.6,0.7,9.7,1.9
			c1.1,1.2,1.5,2.8,1.2,4.5c0,0.1,0,0.1,0,0.2c1,0.2,1.9,0.5,2.7,0.9c1.7,1,2.7,2.5,2.9,4.5c0.2,2.1-0.4,3.8-1.7,5
			c-2.6,2.3-7.3,2.2-9.9,1.9c-0.5-0.1-1.1,0.2-1.4,0.6l-2.4,3.3C0.9,22.9,0.8,23,0.6,23z M5.5,1.1c-1,0-4.4,0.4-4.4,5.2v14.3
			l1.3-1.8C3,18.1,4,17.7,5,17.8c1.9,0.2,6.6,0.5,8.9-1.6c1.1-1,1.5-2.4,1.4-4.1c-0.3-3-2.7-4.1-4.8-4.4C9.7,9.3,8.2,10.1,6.9,10
			C6,10,5.3,9.4,5.3,8.6c-0.1-1.1,1.3-2,3.5-2.1c0.3,0,0.6,0,0.9,0c0-0.1,0-0.2,0.1-0.3c0.3-1.7-0.3-2.9-1-3.6
			C7.9,1.7,6.7,1.1,5.5,1.1z M9.2,7.6c-0.1,0-0.3,0-0.4,0c-1.6,0.1-2.4,0.6-2.4,1c0,0.3,0.4,0.3,0.6,0.4C7.6,9,8.6,8.6,9.2,7.6z"/>
	</g>
	<g>
		<path class="st0" d="M10.3,16.5c-0.6,0-1.5-0.1-2.7-0.4c-0.3-0.1-0.5-0.4-0.4-0.7C7.4,15,7.7,14.9,8,15c1.3,0.3,2.6,0.5,3,0.3
			c0.1-0.5-0.7-2.7-1.6-4.4c-0.1-0.3,0-0.6,0.3-0.7c0.3-0.1,0.6,0,0.8,0.3c0.6,1.3,2,4.3,1.6,5.3C11.9,16,11.5,16.5,10.3,16.5z"/>
	</g>
	<g>
		<g>
			<path class="st0" d="M6.5,12.4c0.9,0,0.9-1.3,0-1.3C5.6,11.1,5.6,12.4,6.5,12.4L6.5,12.4z"/>
		</g>
	</g>
	<g>
		<g>
			<path class="st0" d="M13,12c0.9,0,0.9-1.3,0-1.3C12.1,10.8,12.1,12,13,12L13,12z"/>
		</g>
	</g>
</g>
<g>
	<path class="st0" d="M6.9,36c0-0.9-0.5-1.6-1.2-1.9c0.5-0.3,0.8-1,0.8-1.7c0-1.4-0.9-2.2-2.6-2.2H0.1v8.2h3.7
		C5.8,38.5,6.9,37.6,6.9,36z M5.6,36c0,0.9-0.6,1.2-1.8,1.2H1.4v-2.5h2.4C5,34.8,5.6,35.2,5.6,36z M3.8,33.6H1.4v-2.2h2.3
		c1,0,1.4,0.3,1.4,1.1S4.7,33.6,3.8,33.6z"/>
	<rect x="8" y="29.8" class="st0" width="1.3" height="8.7"/>
	<path class="st0" d="M15,36.4c-0.1,0.7-0.7,1.1-1.5,1.1c-1,0-1.5-0.5-1.5-1.4v-3.5h-1.3v3.7c0,1.5,0.9,2.4,2.5,2.4
		c0.8,0,1.4-0.2,1.8-0.6v0.4h1.3v-6H15L15,36.4z"/>
	<path class="st0" d="M20.5,38.6c1.1,0,2-0.3,2.6-1l0.1-0.1l-0.8-0.9l-0.1,0.1c-0.4,0.4-1,0.7-1.8,0.7c-1,0-1.8-0.5-1.9-1.4h4.6
		l0-0.1c0.1-0.2,0.1-0.4,0.1-0.6c0-1.8-1.2-3.1-3-3.1s-3,1.2-3,3.1C17.3,37.3,18.6,38.6,20.5,38.6z M20.3,33.5
		c0.9,0,1.6,0.5,1.7,1.4h-3.4C18.8,34.1,19.4,33.5,20.3,33.5z"/>
	<path class="st0" d="M27.1,37.4c-0.8,0-1.5-0.3-2.1-0.8l-0.1-0.1l-0.8,1l0.1,0.1c0.7,0.7,1.8,1,3,1c1.5,0,2.4-0.7,2.4-1.8
		c0-1.2-0.8-1.5-2-1.8l-1-0.3c-0.7-0.2-0.9-0.3-0.9-0.6c0-0.4,0.6-0.5,1.2-0.5c0.7,0,1.2,0.2,1.6,0.5l0.1,0.1l0.6-1l-0.1-0.1
		c-0.6-0.4-1.4-0.7-2.2-0.7c-1.6,0-2.5,0.6-2.5,1.7c0,1.1,0.9,1.5,1.8,1.8l1.2,0.3c0.6,0.2,0.9,0.3,0.9,0.6
		C28.3,37.4,27.5,37.4,27.1,37.4z"/>
	<polygon class="st0" points="31.9,36.2 34.4,38.5 36.3,38.5 32.5,35.2 35.9,32.6 38.3,37.9 36.7,41.6 38.1,41.6 42.1,32.5 
		40.7,32.5 39,36.4 37.2,32.5 36.1,32.5 35.8,32.5 34.2,32.5 31.9,34.2 31.9,29.8 30.5,29.8 30.5,38.5 31.9,38.5 	"/>
	<polygon class="st0" points="7.5,47.6 5.9,41.4 4.6,41.4 3,47.6 1.3,41.4 0,41.4 2.3,49.6 3.8,49.6 5.3,43.7 6.7,49.6 8.2,49.6 
		10.5,41.4 9.2,41.4 	"/>
	<path class="st0" d="M13.6,43.5c-1.8,0-3,1.2-3,3.1c0,1.9,1.3,3.2,3.2,3.2c1.1,0,2-0.3,2.6-1l0.1-0.1l-0.8-0.9l-0.1,0.1
		c-0.4,0.4-1,0.7-1.8,0.7c-1.1,0-1.8-0.5-1.9-1.4h4.6l0-0.1c0.1-0.2,0.1-0.4,0.1-0.6C16.7,44.7,15.4,43.5,13.6,43.5z M13.6,44.7
		c0.9,0,1.6,0.5,1.7,1.4h-3.4C12.1,45.2,12.7,44.7,13.6,44.7z"/>
	<rect x="17.8" y="40.9" class="st0" width="1.3" height="8.7"/>
	<rect x="20.5" y="40.9" class="st0" width="1.3" height="8.7"/>
	<path class="st0" d="M26.3,43.5c-0.8,0-1.4,0.3-1.8,0.7v-0.5h-1.3v6h1.3v-3.9c0.1-0.7,0.7-1.1,1.5-1.1c1,0,1.5,0.5,1.5,1.4v3.5h1.3
		v-3.7C28.8,44.4,27.8,43.5,26.3,43.5z"/>
	<path class="st0" d="M32.8,43.5c-1.8,0-3,1.2-3,3.1c0,1.9,1.3,3.2,3.2,3.2c1.1,0,2-0.3,2.6-1l0.1-0.1l-0.8-0.9l-0.1,0.1
		c-0.4,0.4-1,0.7-1.8,0.7c-1,0-1.8-0.5-1.9-1.4h4.6l0-0.1c0.1-0.2,0.1-0.4,0.1-0.6C35.8,44.7,34.6,43.5,32.8,43.5z M32.8,44.7
		c0.9,0,1.6,0.5,1.7,1.4h-3.4C31.3,45.2,31.9,44.7,32.8,44.7z"/>
	<path class="st0" d="M40.1,46.1l-1-0.3c-0.7-0.2-0.9-0.3-0.9-0.6c0-0.4,0.6-0.5,1.2-0.5c0.7,0,1.2,0.2,1.7,0.5l0.1,0.1l0.6-1
		l-0.1-0.1c-0.6-0.4-1.4-0.7-2.2-0.7c-1.6,0-2.5,0.6-2.5,1.7c0,1.1,0.9,1.5,1.8,1.8l1.2,0.3c0.6,0.2,0.9,0.3,0.9,0.6
		c0,0.6-0.8,0.7-1.2,0.7c-0.8,0-1.5-0.3-2.1-0.8l-0.1-0.1l-0.8,1l0.1,0.1c0.7,0.7,1.8,1,3,1c1.5,0,2.4-0.7,2.4-1.8
		C42.1,46.7,41.2,46.4,40.1,46.1z"/>
	<path class="st0" d="M46,46.1l-1-0.3c-0.7-0.2-0.9-0.3-0.9-0.6c0-0.4,0.6-0.5,1.2-0.5c0.7,0,1.2,0.2,1.7,0.5l0.1,0.1l0.6-1
		l-0.1-0.1c-0.6-0.4-1.4-0.7-2.2-0.7c-1.6,0-2.5,0.6-2.5,1.7c0,1.1,0.9,1.5,1.8,1.8l1.2,0.3c0.6,0.2,0.9,0.3,0.9,0.6
		c0,0.6-0.8,0.7-1.2,0.7c-0.8,0-1.5-0.3-2.1-0.8l-0.1-0.1l-0.8,1l0.1,0.1c0.7,0.7,1.8,1,3,1c1.5,0,2.4-0.7,2.4-1.8
		C48,46.7,47.2,46.4,46,46.1z"/>
	<path class="st1" d="M0.5,54.2h2.1V57H0.5V54.2z M0.9,56.7h1.3v-2.1H0.9V56.7z M3.9,54v4.1H3.5V54H3.9z"/>
	<path class="st1" d="M5.7,54.2v1c0,0.7,0.4,1.3,0.9,1.8l-0.3,0.3C6,56.8,5.7,56.4,5.5,56c-0.2,0.4-0.5,0.9-0.8,1.2L4.4,57
		c0.5-0.4,0.9-1.1,0.9-1.8v-1L5.7,54.2L5.7,54.2z M6.2,55.3h0.7V54h0.4V58H6.9v-2.3H6.2V55.3z M8.2,54v4.1H7.8V54H8.2z"/>
	<path class="st1" d="M8.9,54.2h2V55h0.8v-1h0.4v2.9h-0.4v-1.5h-0.8v0.9h-2V54.2z M10.5,54.5H9.3v1.4h1.2V54.5z M9.3,56.6h0.4v1.1
		h2.5V58H9.3V56.6z"/>
	<path class="st1" d="M15.3,54.6h-0.9v0.6c0,0.7,0.6,1.3,1.1,1.7l-0.2,0.3c-0.4-0.3-0.9-0.9-1.1-1.2c-0.2,0.4-0.7,1-1.1,1.3
		l-0.3-0.3c0.6-0.5,1.2-1,1.2-1.8v-0.6h-1v-0.4h2.3L15.3,54.6L15.3,54.6z M16.4,54v4.1H16V54H16.4z"/>
	<path class="st1" d="M20.9,54V58h-0.4v-1.4h-0.7c-0.2,0.4-0.4,0.6-0.8,0.6c-0.6,0-1-0.5-1-1.5c0-1,0.3-1.5,1-1.5
		c0.4,0,0.7,0.2,0.8,0.5h0.7V54H20.9z M19,54.5c-0.4,0-0.6,0.4-0.6,1.1s0.2,1.1,0.6,1.1s0.6-0.4,0.6-1.1
		C19.6,54.9,19.4,54.5,19,54.5z M19.9,56.2h0.6V55h-0.6c0,0.2,0,0.4,0,0.6C20,55.8,20,56,19.9,56.2z M21.7,54v4.1h-0.4V54H21.7z"/>
	<path class="st1" d="M25.6,54.2v2.1h-1.2v0.9h1.8v0.4h-4v-0.4h1.8v-0.9h-1.2v-2.1h0.4v0.7h2.1v-0.7H25.6z M25.2,55.9v-0.7h-2.1v0.7
		H25.2z"/>
	<path class="st1" d="M29.6,55.1c0,0.8-0.7,1.5-1.8,2.2l-0.2-0.3c1-0.6,1.6-1.2,1.6-1.8v-0.5h-1.6v-0.4h2L29.6,55.1L29.6,55.1z
		 M30.9,54v4.1h-0.4V54H30.9z"/>
	<path class="st1" d="M33.8,54.1v2.1h-2v-2.1h0.4v0.7h1.2v-0.7H33.8z M32.2,56.6h0.4v1h2.5V58h-2.9V56.6z M33.4,55.9v-0.7h-1.2v0.7
		H33.4z M34.9,54v1.1h0.6v0.4h-0.6v1.4h-0.4V54H34.9z"/>
	<path class="st1" d="M0.5,63.1v-1.7h1.6v-0.9H0.5v-0.4h2v1.6H0.9v1h0.7c0.4,0,0.8,0,1.2,0l0,0.3c-0.5,0.1-0.9,0.1-1.3,0.1H0.5z
		 M3.6,59.9v1.4h0.7v0.4H3.6V64H3.2v-4.1H3.6z"/>
	<path class="st1" d="M5.8,63c-0.7,0-1.2-0.5-1.2-1.5s0.5-1.5,1.2-1.5s1.2,0.5,1.2,1.5C6.9,62.5,6.5,63,5.8,63z M5.8,60.4
		c-0.5,0-0.8,0.4-0.8,1.1s0.3,1.1,0.8,1.1c0.5,0,0.8-0.4,0.8-1.1C6.5,60.8,6.3,60.4,5.8,60.4z M8,59.9V64H7.6v-4.1H8z"/>
	<path class="st1" d="M12.6,63.1v0.4h-4v-0.4H12.6z M12.2,60.5H9v-0.4h3.2V60.5z M12.2,62.3H9v-0.4h0.6v-1.2H10v1.2h1.2v-1.2h0.4
		v1.2h0.6L12.2,62.3L12.2,62.3z"/>
	<path class="st1" d="M16.7,63.1v0.4h-4v-0.4H16.7z M15,60.1v0.6c0,0.6,0.9,1,1.5,1.2l-0.2,0.3c-0.6-0.2-1.3-0.6-1.5-1
		c-0.2,0.4-0.9,0.8-1.5,1L13,62c0.6-0.2,1.5-0.7,1.5-1.2v-0.6H15z"/>
	<path class="st1" d="M19.2,61.7h-1.6v1h0.7c0.4,0,0.8,0,1.2,0l0,0.3c-0.5,0.1-0.9,0.1-1.3,0.1h-1v-2.9h2.1v0.4h-1.7v0.9h1.6V61.7z
		 M20.3,59.9v1.4H21v0.4h-0.7V64h-0.4v-4.1H20.3z"/>
	<path class="st1" d="M22.4,60c0.7,0,1.1,0.4,1.1,0.9s-0.4,0.9-1.1,0.9c-0.7,0-1.1-0.4-1.1-0.9C21.4,60.4,21.8,60,22.4,60z
		 M22.4,61.5c0.4,0,0.7-0.2,0.7-0.6c0-0.4-0.3-0.6-0.7-0.6c-0.4,0-0.7,0.2-0.7,0.6C21.8,61.3,22,61.5,22.4,61.5z M21.8,62.9h2.4
		v-0.3h-2.4v-0.4h2.8v1.1h-2.4v0.4h2.5V64h-2.9L21.8,62.9L21.8,62.9z M24.3,59.9h0.4V62h-0.4V59.9z"/>
	<path class="st1" d="M30.3,62.4v0.4h-1.8V64h-0.4v-1.3h-1.8v-0.4H30.3z M28.5,59.7v0.6h1.3v0.4h-1.3v0c0,0.5,0.8,0.8,1.5,1.1
		l-0.2,0.3c-0.6-0.2-1.3-0.5-1.6-0.8c-0.3,0.3-0.9,0.6-1.6,0.8l-0.2-0.3c0.7-0.2,1.5-0.6,1.5-1.1v0h-1.3v-0.4h1.3v-0.6H28.5z"/>
	<path class="st1" d="M31.6,60.4v-0.6H32v0.6H33v0.4H32v0.3c0,0.5,0.6,0.8,1.1,0.9l-0.2,0.3c-0.4-0.2-0.9-0.5-1.1-0.7
		c-0.2,0.3-0.6,0.6-1.1,0.8l-0.2-0.3c0.4-0.2,1.1-0.6,1.1-1v-0.3h-1v-0.4L31.6,60.4L31.6,60.4z M31.2,62.6h0.4v1h2.5V64h-2.9V62.6z
		 M32.7,61.1h0.9v-1.2H34v3h-0.4v-1.4h-0.9V61.1z"/>
	<path class="st1" d="M37.2,60.1v1c0,0.8,0.5,1.3,1.1,1.7L38,63.1c-0.4-0.3-0.8-0.8-1-1.2c-0.2,0.5-0.6,0.9-1,1.2l-0.3-0.3
		c0.6-0.4,1.1-1,1.1-1.8v-1L37.2,60.1L37.2,60.1z M37.9,61.1h1v-1.2h0.4V64h-0.4v-2.5h-1C37.9,61.5,37.9,61.1,37.9,61.1z"/>
	<path class="st1" d="M42.2,60.1V63h-2.1v-2.9h0.4v1h1.3v-1H42.2z M41.8,62.6v-1.2h-1.3v1.2H41.8z M43.5,59.9V64h-0.4v-4.1H43.5z"/>
	<path class="st1" d="M48,63.1v0.4h-4v-0.4H48z M46.2,60.1v0.6c0,0.6,0.9,1,1.5,1.2l-0.2,0.3c-0.6-0.2-1.3-0.6-1.5-1
		c-0.2,0.4-0.9,0.8-1.5,1L44.3,62c0.6-0.2,1.5-0.7,1.5-1.2v-0.6H46.2z"/>
</g>
</svg>
