<?xml version="1.0" encoding="utf-8"?>
<!-- Generator: Adobe Illustrator 24.2.1, SVG Export Plug-In . SVG Version: 6.00 Build 0)  -->
<svg version="1.1" id="Layer_1" xmlns="http://www.w3.org/2000/svg" xmlns:xlink="http://www.w3.org/1999/xlink" x="0px" y="0px"
	 viewBox="0 0 48 64" style="enable-background:new 0 0 48 64;" xml:space="preserve">
<style type="text/css">
	.st0{fill:#FFFFFF;}
</style>
<g>
	<g>
		<path class="st0" d="M1.72,64c-0.17,0-0.34-0.02-0.51-0.07C0.49,63.73,0,63.13,0,62.46V17.59C0,4.62,8.38,0,16.21,0
			c4.31,0,8.92,2.06,12.02,5.39c3.21,3.45,4.48,7.89,3.55,12.5c-0.04,0.18-0.07,0.35-0.11,0.52c2.83,0.44,5.52,1.31,7.8,2.55
			c4.99,2.71,7.9,7.04,8.42,12.51c0.57,5.94-1.12,10.65-5.01,14c-7.58,6.52-21.32,6.04-28.83,5.18c-1.57-0.18-3.1,0.43-4,1.61
			l-6.92,9.08C2.81,63.76,2.27,64,1.72,64z M16.21,3.08c-3,0-12.78,1.05-12.78,14.51v39.89l3.78-4.96c1.63-2.13,4.41-3.26,7.27-2.93
			c5.56,0.64,19.22,1.5,26.01-4.35c3.11-2.67,4.44-6.54,3.97-11.51c-0.79-8.32-7.9-11.49-13.88-12.33
			c-2.26,4.52-6.63,6.76-10.36,6.56c-2.76-0.15-4.7-1.71-4.84-3.9c-0.2-3.15,3.86-5.54,10.11-5.94c0.91-0.06,1.82-0.07,2.73-0.04
			c0.06-0.24,0.12-0.49,0.17-0.74c0.95-4.74-1-8.04-2.81-9.98C23.17,4.76,19.49,3.08,16.21,3.08z M26.9,21.16
			c-0.4,0-0.79,0.02-1.15,0.04c-4.55,0.29-6.98,1.77-6.92,2.69c0.05,0.79,1.04,0.97,1.62,1C22.25,24.98,25.07,23.97,26.9,21.16z"/>
	</g>
	<g>
		<path class="st0" d="M30.09,45.76c-1.85,0-4.35-0.33-7.72-1.2c-0.91-0.24-1.44-1.09-1.17-1.91c0.26-0.82,1.21-1.29,2.13-1.05
			c3.66,0.94,7.69,1.34,8.65,0.87c0.25-1.47-2.13-7.5-4.59-12.37c-0.39-0.78-0.01-1.69,0.86-2.04c0.86-0.35,1.88-0.01,2.27,0.77
			c1.77,3.51,5.77,11.96,4.67,14.76C34.82,44.55,33.64,45.76,30.09,45.76z"/>
	</g>
	<g>
		<g>
			<path class="st0" d="M19.06,34.36c2.57,0,2.57-3.58,0-3.58C16.49,30.78,16.49,34.36,19.06,34.36L19.06,34.36z"/>
		</g>
	</g>
	<g>
		<g>
			<path class="st0" d="M37.86,33.47c2.57,0,2.57-3.58,0-3.58C35.3,29.89,35.29,33.47,37.86,33.47L37.86,33.47z"/>
		</g>
	</g>
</g>
</svg>
